<svg xmlns="http://www.w3.org/2000/svg" xmlns:xlink="http://www.w3.org/1999/xlink" width="500" zoomAndPan="magnify" viewBox="0 0 375 374.999991" height="500" preserveAspectRatio="xMidYMid meet" version="1.0"><defs><g/><clipPath id="c7142844b9"><path d="M 111 114 L 255 114 L 255 259 L 111 259 Z M 111 114 " clip-rule="nonzero"/></clipPath><clipPath id="91f18c91fc"><path d="M 103.109375 123.683594 L 246.097656 106.648438 L 263.136719 249.636719 L 120.148438 266.671875 Z M 103.109375 123.683594 " clip-rule="nonzero"/></clipPath><clipPath id="e3a0b2c25b"><path d="M 103.109375 123.683594 L 245.902344 106.671875 L 262.914062 249.460938 L 120.125 266.476562 Z M 103.109375 123.683594 " clip-rule="nonzero"/></clipPath><clipPath id="b0b556c362"><path d="M 174.507812 115.179688 C 135.074219 119.875 106.917969 155.648438 111.617188 195.082031 C 116.316406 234.511719 152.089844 262.667969 191.519531 257.96875 C 230.949219 253.269531 259.105469 217.496094 254.40625 178.066406 C 249.710938 138.636719 213.9375 110.480469 174.507812 115.179688 Z M 174.507812 115.179688 " clip-rule="nonzero"/></clipPath><clipPath id="e561615634"><path d="M 216.386719 119.734375 L 262.285156 119.734375 L 262.285156 182.746094 L 216.386719 182.746094 Z M 216.386719 119.734375 " clip-rule="nonzero"/></clipPath><clipPath id="9265a499b8"><path d="M 236.339844 140.398438 L 288.089844 140.398438 L 288.089844 195.148438 L 236.339844 195.148438 Z M 236.339844 140.398438 " clip-rule="nonzero"/></clipPath><clipPath id="d18609ab51"><path d="M 139.414062 140.078125 L 168 140.078125 L 168 176 L 139.414062 176 Z M 139.414062 140.078125 " clip-rule="nonzero"/></clipPath><clipPath id="e8ec3c5c7f"><path d="M 199 206 L 221 206 L 221 227.078125 L 199 227.078125 Z M 199 206 " clip-rule="nonzero"/></clipPath><clipPath id="34d56159d5"><path d="M 212 179 L 226.414062 179 L 226.414062 201 L 212 201 Z M 212 179 " clip-rule="nonzero"/></clipPath><clipPath id="b3a522c325"><path d="M 221 221 L 226.414062 221 L 226.414062 225 L 221 225 Z M 221 221 " clip-rule="nonzero"/></clipPath><clipPath id="bb2d57cb6f"><path d="M 154 206 L 176 206 L 176 227.078125 L 154 227.078125 Z M 154 206 " clip-rule="nonzero"/></clipPath></defs><rect x="-37.5" width="450" fill="#ffffff" y="-37.499999" height="449.999989" fill-opacity="1"/><rect x="-37.5" width="450" fill="#ffffff" y="-37.499999" height="449.999989" fill-opacity="1"/><g clip-path="url(#c7142844b9)"><g clip-path="url(#91f18c91fc)"><g clip-path="url(#e3a0b2c25b)"><g clip-path="url(#b0b556c362)"><path stroke-linecap="butt" transform="matrix(0.744732, -0.0887354, 0.0887354, 0.744732, 103.110591, 123.685041)" fill="none" stroke-linejoin="miter" d="M 95.869405 0.00222105 C 42.919876 -0.00205375 -0.00143475 42.91915 -0.000537802 95.869295 C 0.000975369 148.814267 42.922179 191.735578 95.867152 191.734065 C 148.812125 191.732552 191.733436 148.811348 191.731923 95.866376 C 191.735581 42.922019 148.814377 0.000707877 95.869405 0.00222105 Z M 95.869405 0.00222105 " stroke="#000000" stroke-width="6" stroke-opacity="1" stroke-miterlimit="4"/></g></g></g></g><g clip-path="url(#e561615634)"><path fill="#ffffff" d="M 216.386719 119.734375 L 262.285156 119.734375 L 262.285156 182.664062 L 216.386719 182.664062 Z M 216.386719 119.734375 " fill-opacity="1" fill-rule="nonzero"/></g><g clip-path="url(#9265a499b8)"><path fill="#e30a17" d="M 273.128906 140.40625 L 260.351562 140.40625 C 260.351562 140.40625 260.3125 140.445312 260.308594 140.445312 C 252.195312 148.710938 244.203125 157.105469 236.339844 165.628906 L 236.339844 195.144531 C 253.605469 176.929688 270.847656 158.691406 288.066406 140.433594 C 288.074219 140.425781 288.082031 140.414062 288.09375 140.40625 Z M 273.128906 140.40625 " fill-opacity="1" fill-rule="nonzero"/></g><path fill="#ffffff" d="M 259.503906 167.371094 C 261.476562 165.339844 262.152344 162.515625 261.542969 159.941406 C 261.65625 161.691406 261.0625 163.476562 259.753906 164.828125 C 257.304688 167.351562 253.285156 167.402344 250.773438 164.9375 C 248.265625 162.472656 248.21875 158.425781 250.664062 155.902344 C 251.976562 154.550781 253.738281 153.910156 255.476562 153.980469 C 252.902344 153.433594 250.117188 154.183594 248.144531 156.214844 C 245.082031 159.371094 245.144531 164.429688 248.28125 167.507812 C 251.417969 170.589844 256.441406 170.527344 259.5 167.371094 Z M 259.503906 167.371094 " fill-opacity="1" fill-rule="nonzero"/><path fill="#ffffff" d="M 259.488281 154.667969 L 258.210938 157.269531 L 260.765625 155.921875 L 262.828125 157.949219 L 262.34375 155.089844 L 264.894531 153.738281 L 262.042969 153.320312 L 261.554688 150.460938 L 260.277344 153.0625 L 257.425781 152.640625 Z M 259.488281 154.667969 " fill-opacity="1" fill-rule="nonzero"/><path fill="#000000" d="M 214.414062 192.546875 C 214.414062 189.0625 213.320312 185.832031 211.46875 183.164062 L 199.414062 190.398438 L 199.414062 194.167969 L 214.414062 195.417969 Z M 214.414062 192.546875 " fill-opacity="1" fill-rule="nonzero"/><path fill="#000000" d="M 199.414062 186.898438 L 209.519531 180.835938 C 206.871094 178.210938 203.335938 176.480469 199.414062 176.125 Z M 199.414062 186.898438 " fill-opacity="1" fill-rule="nonzero"/><path fill="#000000" d="M 202.640625 149.046875 L 181.183594 149.046875 L 180.183594 155.046875 L 203.640625 155.046875 Z M 202.640625 149.046875 " fill-opacity="1" fill-rule="nonzero"/><path fill="#000000" d="M 190.414062 182.046875 L 178.414062 182.046875 L 178.414062 194.046875 L 190.414062 194.046875 Z M 182.914062 189.546875 C 182.085938 189.546875 181.414062 188.875 181.414062 188.046875 C 181.414062 187.21875 182.085938 186.546875 182.914062 186.546875 C 183.742188 186.546875 184.414062 187.21875 184.414062 188.046875 C 184.414062 188.878906 183.742188 189.546875 182.914062 189.546875 Z M 182.914062 189.546875 " fill-opacity="1" fill-rule="nonzero"/><path fill="#000000" d="M 168.015625 165.011719 L 172.414062 164.277344 L 172.414062 164.046875 C 172.414062 162.339844 172.15625 160.691406 171.710938 159.125 L 166.921875 161.175781 C 167.375 162.421875 167.746094 163.699219 168.015625 165.011719 Z M 168.015625 165.011719 " fill-opacity="1" fill-rule="nonzero"/><path fill="#000000" d="M 172.414062 198.546875 C 172.414062 199.375 173.085938 200.046875 173.914062 200.046875 L 194.914062 200.046875 C 195.738281 200.046875 196.414062 199.375 196.414062 198.546875 L 196.414062 176.046875 L 175.710938 176.046875 C 174.5625 176.046875 173.457031 175.847656 172.414062 175.5 Z M 175.414062 182.046875 C 175.414062 180.394531 176.757812 179.046875 178.414062 179.046875 L 190.414062 179.046875 C 192.066406 179.046875 193.414062 180.394531 193.414062 182.046875 L 193.414062 194.046875 C 193.414062 195.703125 192.066406 197.046875 190.414062 197.046875 L 178.414062 197.046875 C 176.757812 197.046875 175.414062 195.703125 175.414062 194.046875 Z M 175.414062 182.046875 " fill-opacity="1" fill-rule="nonzero"/><path fill="#000000" d="M 172.414062 172.242188 L 172.414062 167.316406 L 168.613281 167.953125 C 169.257812 169.847656 170.65625 171.371094 172.414062 172.242188 Z M 172.414062 172.242188 " fill-opacity="1" fill-rule="nonzero"/><path fill="#000000" d="M 169.414062 174.308594 L 156.699219 179.203125 C 156.488281 179.980469 156.25 180.75 155.949219 181.503906 L 155.492188 182.636719 C 154.777344 184.429688 154.414062 186.316406 154.414062 188.246094 C 154.414062 190.546875 154.972656 192.816406 155.980469 194.882812 L 169.414062 190 Z M 169.414062 174.308594 " fill-opacity="1" fill-rule="nonzero"/><path fill="#000000" d="M 164.914062 203.046875 C 165.761719 203.046875 166.59375 203.136719 167.402344 203.289062 L 168.730469 199.964844 C 169.183594 198.832031 169.414062 197.640625 169.414062 196.421875 L 169.414062 193.1875 L 157.410156 197.554688 L 160.816406 203.6875 C 162.109375 203.277344 163.484375 203.046875 164.914062 203.046875 Z M 164.914062 203.046875 " fill-opacity="1" fill-rule="nonzero"/><path fill="#000000" d="M 209.914062 203.046875 C 211.492188 203.046875 213.003906 203.335938 214.414062 203.835938 L 214.414062 198.429688 L 199.414062 197.179688 L 199.414062 198.09375 L 203.726562 204.566406 C 205.582031 203.601562 207.683594 203.046875 209.914062 203.046875 Z M 209.914062 203.046875 " fill-opacity="1" fill-rule="nonzero"/><path fill="#000000" d="M 202.414062 158.046875 L 181.414062 158.046875 L 181.414062 173.046875 L 197.914062 173.046875 C 199.464844 173.046875 200.964844 173.25 202.414062 173.59375 Z M 187.414062 167.046875 L 184.414062 167.046875 L 184.414062 161.046875 L 187.414062 161.046875 Z M 193.414062 167.046875 L 190.414062 167.046875 L 190.414062 161.046875 L 193.414062 161.046875 Z M 199.414062 167.046875 L 196.414062 167.046875 L 196.414062 161.046875 L 199.414062 161.046875 Z M 199.414062 167.046875 " fill-opacity="1" fill-rule="nonzero"/><path fill="#000000" d="M 165.738281 158.421875 L 170.644531 156.320312 C 169.972656 154.917969 169.140625 153.609375 168.144531 152.4375 L 164.464844 156.121094 C 164.929688 156.863281 165.347656 157.632812 165.738281 158.421875 Z M 165.738281 158.421875 " fill-opacity="1" fill-rule="nonzero"/><g clip-path="url(#d18609ab51)"><path fill="#000000" d="M 155.296875 162.902344 L 156.800781 168.914062 C 157.207031 170.539062 157.414062 172.210938 157.414062 173.886719 C 157.414062 174.511719 157.382812 175.128906 157.324219 175.746094 L 167.367188 171.882812 C 166.3125 170.5 165.585938 168.851562 165.328125 167.042969 C 164.207031 159.214844 159.316406 152.425781 152.242188 148.890625 L 151.558594 148.546875 L 150.179688 140.273438 C 150.136719 140.011719 149.691406 140.011719 149.644531 140.273438 L 148.273438 148.175781 L 139.613281 166.941406 C 139.480469 167.230469 139.414062 167.539062 139.414062 167.859375 C 139.414062 169.066406 140.394531 170.046875 141.601562 170.046875 L 141.816406 170.046875 C 142.050781 170.046875 142.28125 170.011719 142.503906 169.9375 L 149.488281 167.609375 Z M 148.414062 156.546875 C 148.414062 155.71875 149.085938 155.046875 149.914062 155.046875 C 150.742188 155.046875 151.414062 155.71875 151.414062 156.546875 C 151.414062 157.375 150.742188 158.046875 149.914062 158.046875 C 149.085938 158.046875 148.414062 157.378906 148.414062 156.546875 Z M 148.414062 156.546875 " fill-opacity="1" fill-rule="nonzero"/></g><g clip-path="url(#e8ec3c5c7f)"><path fill="#000000" d="M 209.914062 206.046875 C 204.125 206.046875 199.414062 210.757812 199.414062 216.546875 C 199.414062 222.335938 204.125 227.046875 209.914062 227.046875 C 215.703125 227.046875 220.414062 222.335938 220.414062 216.546875 C 220.414062 210.757812 215.703125 206.046875 209.914062 206.046875 Z M 209.914062 219.546875 C 208.253906 219.546875 206.914062 218.207031 206.914062 216.546875 C 206.914062 214.890625 208.253906 213.546875 209.914062 213.546875 C 211.570312 213.546875 212.914062 214.890625 212.914062 216.546875 C 212.914062 218.207031 211.570312 219.546875 209.914062 219.546875 Z M 209.914062 219.546875 " fill-opacity="1" fill-rule="nonzero"/></g><path fill="#000000" d="M 177.625 221.046875 C 177.246094 222.113281 176.75 223.125 176.128906 224.046875 L 198.695312 224.046875 C 198.078125 223.125 197.578125 222.113281 197.199219 221.046875 Z M 177.625 221.046875 " fill-opacity="1" fill-rule="nonzero"/><path fill="#000000" d="M 216.183594 185.800781 C 216.964844 187.910156 217.414062 190.175781 217.414062 192.546875 L 217.414062 200.046875 L 220.414062 200.046875 L 220.414062 192.546875 C 220.414062 189.605469 218.691406 187.023438 216.183594 185.800781 Z M 216.183594 185.800781 " fill-opacity="1" fill-rule="nonzero"/><g clip-path="url(#34d56159d5)"><path fill="#000000" d="M 216.992188 179.046875 C 215.558594 179.046875 214.121094 179.386719 212.835938 180.019531 C 213.402344 180.695312 213.914062 181.414062 214.386719 182.160156 C 219.503906 182.882812 223.414062 187.300781 223.414062 192.546875 L 223.414062 200.046875 L 226.414062 200.046875 L 226.414062 188.46875 C 226.414062 183.273438 222.1875 179.046875 216.992188 179.046875 Z M 216.992188 179.046875 " fill-opacity="1" fill-rule="nonzero"/></g><g clip-path="url(#b3a522c325)"><path fill="#000000" d="M 221.128906 224.046875 L 226.414062 224.046875 L 226.414062 221.046875 L 222.625 221.046875 C 222.246094 222.113281 221.75 223.125 221.128906 224.046875 Z M 221.128906 224.046875 " fill-opacity="1" fill-rule="nonzero"/></g><g clip-path="url(#bb2d57cb6f)"><path fill="#000000" d="M 164.914062 206.046875 C 159.125 206.046875 154.414062 210.757812 154.414062 216.546875 C 154.414062 222.335938 159.125 227.046875 164.914062 227.046875 C 170.703125 227.046875 175.414062 222.335938 175.414062 216.546875 C 175.414062 210.757812 170.703125 206.046875 164.914062 206.046875 Z M 164.914062 219.546875 C 163.253906 219.546875 161.914062 218.207031 161.914062 216.546875 C 161.914062 214.890625 163.253906 213.546875 164.914062 213.546875 C 166.570312 213.546875 167.914062 214.890625 167.914062 216.546875 C 167.914062 218.207031 166.570312 219.546875 164.914062 219.546875 Z M 164.914062 219.546875 " fill-opacity="1" fill-rule="nonzero"/></g><path fill="#000000" d="M 157.65625 148.730469 L 158.910156 146.640625 C 157.46875 146.265625 155.96875 146.046875 154.414062 146.046875 L 154.183594 146.046875 L 154.269531 146.5625 C 155.460938 147.203125 156.585938 147.933594 157.65625 148.730469 Z M 157.65625 148.730469 " fill-opacity="1" fill-rule="nonzero"/><path fill="#000000" d="M 166.023438 150.316406 C 164.753906 149.242188 163.332031 148.347656 161.800781 147.652344 L 159.984375 150.679688 C 160.964844 151.597656 161.882812 152.578125 162.714844 153.628906 Z M 166.023438 150.316406 " fill-opacity="1" fill-rule="nonzero"/><path fill="#000000" d="M 143.773438 149.917969 L 144.113281 150.035156 L 145.46875 147.101562 L 145.640625 146.046875 L 144.402344 146.046875 C 143.304688 146.046875 142.414062 146.941406 142.414062 148.035156 C 142.414062 148.890625 142.960938 149.648438 143.773438 149.917969 Z M 143.773438 149.917969 " fill-opacity="1" fill-rule="nonzero"/><path fill="#000000" d="M 148.414062 221.046875 L 148.414062 224.046875 L 153.695312 224.046875 C 153.078125 223.125 152.578125 222.113281 152.199219 221.046875 Z M 148.414062 221.046875 " fill-opacity="1" fill-rule="nonzero"/><path fill="#ffffff" d="M 89.65625 180.96875 C 90.105469 178.757812 90.628906 176.5625 91.230469 174.390625 C 91.832031 172.214844 92.507812 170.0625 93.257812 167.933594 C 94.007812 165.804688 94.832031 163.707031 95.730469 161.632812 C 96.625 159.5625 97.59375 157.527344 98.632812 155.523438 C 99.667969 153.519531 100.777344 151.554688 101.953125 149.625 C 103.125 147.699219 104.367188 145.816406 105.675781 143.976562 C 106.980469 142.136719 108.347656 140.34375 109.78125 138.597656 C 111.210938 136.851562 112.699219 135.160156 114.25 133.519531 C 115.796875 131.875 117.402344 130.292969 119.0625 128.761719 C 120.722656 127.230469 122.429688 125.761719 124.191406 124.351562 C 125.953125 122.941406 127.761719 121.59375 129.617188 120.308594 C 131.472656 119.023438 133.371094 117.804688 135.3125 116.648438 C 137.25 115.496094 139.230469 114.414062 141.246094 113.398438 C 143.261719 112.382812 145.308594 111.4375 147.390625 110.566406 C 149.472656 109.691406 151.578125 108.894531 153.714844 108.167969 C 155.851562 107.441406 158.011719 106.792969 160.195312 106.214844 C 162.378906 105.640625 164.578125 105.140625 166.792969 104.71875 C 169.011719 104.296875 171.238281 103.949219 173.480469 103.683594 C 175.722656 103.414062 177.96875 103.226562 180.222656 103.113281 C 182.476562 103.003906 184.730469 102.972656 186.988281 103.015625 C 189.246094 103.0625 191.496094 103.1875 193.746094 103.390625 C 195.992188 103.59375 198.230469 103.871094 200.457031 104.230469 C 202.6875 104.589844 204.898438 105.023438 207.097656 105.535156 C 209.296875 106.046875 211.472656 106.636719 213.628906 107.300781 C 215.785156 107.964844 217.917969 108.703125 220.023438 109.515625 C 222.128906 110.328125 224.203125 111.210938 226.25 112.167969 C 228.292969 113.125 230.300781 114.148438 232.273438 115.246094 C 234.246094 116.34375 236.179688 117.507812 238.070312 118.738281 C 239.960938 119.96875 241.808594 121.261719 243.609375 122.621094 C 245.410156 123.980469 247.164062 125.402344 248.867188 126.882812 C 250.570312 128.363281 252.21875 129.902344 253.8125 131.496094 C 255.410156 133.09375 256.949219 134.742188 258.429688 136.445312 L 232.703125 158.816406 C 230.777344 156.601562 228.707031 154.53125 226.492188 152.605469 C 224.277344 150.679688 221.9375 148.914062 219.476562 147.316406 C 217.015625 145.714844 214.457031 144.292969 211.796875 143.046875 C 209.140625 141.804688 206.40625 140.75 203.601562 139.886719 C 200.796875 139.023438 197.945312 138.359375 195.046875 137.890625 C 192.148438 137.425781 189.230469 137.164062 186.296875 137.101562 C 183.363281 137.042969 180.4375 137.1875 177.523438 137.535156 C 174.605469 137.882812 171.730469 138.433594 168.890625 139.179688 C 166.054688 139.929688 163.28125 140.871094 160.574219 142.007812 C 157.867188 143.140625 155.25 144.460938 152.726562 145.960938 C 150.203125 147.457031 147.796875 149.125 145.503906 150.960938 C 143.214844 152.796875 141.0625 154.78125 139.046875 156.917969 C 137.03125 159.050781 135.175781 161.316406 133.476562 163.710938 C 131.777344 166.105469 130.253906 168.605469 128.902344 171.210938 C 127.550781 173.816406 126.386719 176.503906 125.410156 179.273438 C 124.433594 182.039062 123.65625 184.863281 123.070312 187.738281 Z M 89.65625 180.96875 " fill-opacity="1" fill-rule="nonzero"/><g fill="#000000" fill-opacity="1"><g transform="translate(113.47054, 184.815832)"><g><path d="M -14.03125 -13.9375 C -13.53125 -15.550781 -12.738281 -16.898438 -11.65625 -17.984375 L -8.953125 -16.421875 L -8.90625 -16.09375 C -9.4375 -15.695312 -9.898438 -15.222656 -10.296875 -14.671875 C -10.703125 -14.128906 -11.003906 -13.535156 -11.203125 -12.890625 C -12.066406 -10.148438 -10.707031 -8.210938 -7.125 -7.078125 C -5.1875 -6.460938 -3.617188 -6.359375 -2.421875 -6.765625 C -1.234375 -7.171875 -0.425781 -8.054688 0 -9.421875 C 0.207031 -10.054688 0.316406 -10.75 0.328125 -11.5 C 0.347656 -12.25 0.273438 -12.945312 0.109375 -13.59375 L 0.390625 -13.84375 L 3.25 -12.640625 C 3.4375 -11.128906 3.304688 -9.65625 2.859375 -8.21875 C 2.078125 -5.757812 0.765625 -4.109375 -1.078125 -3.265625 C -2.929688 -2.421875 -5.207031 -2.425781 -7.90625 -3.28125 C -10.65625 -4.144531 -12.5625 -5.503906 -13.625 -7.359375 C -14.695312 -9.222656 -14.832031 -11.414062 -14.03125 -13.9375 Z M -14.03125 -13.9375 "/></g></g></g><g fill="#000000" fill-opacity="1"><g transform="translate(118.777984, 168.760432)"><g><path d="M 8.25 -13.421875 L 6.296875 -10.25 L 4.140625 -11.0625 L 2.515625 -11.515625 L 0.671875 -8.671875 L -0.828125 -6.078125 L 0.15625 -4.921875 L 2 -3.265625 L 0.109375 -0.1875 L -11.609375 -14.28125 L -9.328125 -17.984375 Z M -0.296875 -12.34375 L -7.515625 -14.375 L -7.65625 -14.171875 L -2.734375 -8.359375 L -1.46875 -10.3125 Z M -0.296875 -12.34375 "/></g></g></g><g fill="#000000" fill-opacity="1"><g transform="translate(128.893686, 152.709682)"><g><path d="M 8.484375 -15.078125 L 12.203125 -11.234375 L 9.296875 -8.5625 L -3.875 -12.421875 L -4.03125 -12.28125 L -0.140625 -8 L 3.984375 -3.671875 L 1.546875 -1.421875 L -1.78125 -5.328125 L -10.203125 -14.21875 L -7.3125 -16.875 L 5.875 -13.03125 L 6.046875 -13.1875 L -1.875 -21.65625 L 0.46875 -24.109375 Z M 8.484375 -15.078125 "/></g></g></g><g fill="#000000" fill-opacity="1"><g transform="translate(145.076964, 138.566201)"><g><path d="M 14.046875 -7.109375 L 10.734375 -5.4375 L 9.3125 -7.25 L 8.1875 -8.5 L 5.109375 -7.046875 L 2.484375 -5.609375 L 2.703125 -4.125 L 3.421875 -1.734375 L 0.1875 -0.09375 L -2.40625 -18.25 L 1.46875 -20.21875 Z M 6.203125 -10.6875 L 1.125 -16.1875 L 0.890625 -16.078125 L 2.046875 -8.5625 L 4.15625 -9.5625 Z M 6.203125 -10.6875 "/></g></g></g><g fill="#000000" fill-opacity="1"><g transform="translate(162.258444, 130.313167)"><g><path d="M 7.203125 -10.9375 C 9.640625 -8.726562 12.398438 -6.445312 15.484375 -4.09375 L 15.5 -3.703125 C 14.5625 -3.234375 13.445312 -2.78125 12.15625 -2.34375 L 11.703125 -2.46875 C 8.742188 -5.019531 6.054688 -7.507812 3.640625 -9.9375 L 4.328125 -6.5625 L 5.625 -1.203125 L 2.0625 -0.4375 L 1.15625 -5.546875 L -1.59375 -17.421875 L 2.015625 -18.203125 L 3.578125 -10.28125 L 7.015625 -17.578125 L 7.625 -19.40625 L 11.484375 -20.234375 Z M 7.203125 -10.9375 "/></g></g></g><g fill="#000000" fill-opacity="1"><g transform="translate(180.564121, 126.75179)"><g><path d="M 9.703125 -8.765625 C 11.515625 -6.015625 13.617188 -3.117188 16.015625 -0.078125 L 15.9375 0.328125 C 14.914062 0.535156 13.71875 0.6875 12.34375 0.78125 L 11.9375 0.546875 C 9.71875 -2.671875 7.75 -5.753906 6.03125 -8.703125 L 5.84375 -5.265625 L 5.75 0.234375 L 2.109375 0.09375 L 2.515625 -5.078125 L 2.84375 -17.265625 L 6.53125 -17.109375 L 6.046875 -9.046875 L 11.1875 -15.25 L 12.265625 -16.875 L 16.203125 -16.703125 Z M 9.703125 -8.765625 "/></g></g></g><g fill="#000000" fill-opacity="1"><g transform="translate(199.165428, 127.87881)"><g><path d="M 15.046875 4.640625 L 11.5 3.546875 L 11.75 1.234375 L 11.78125 -0.4375 L 8.5625 -1.515625 L 5.6875 -2.328125 L 4.8125 -1.078125 L 3.65625 1.125 L 0.203125 0.0625 L 10.9375 -14.8125 L 15.078125 -13.53125 Z M 11.890625 -3.375 L 12.046875 -10.859375 L 11.8125 -10.9375 L 7.421875 -4.75 L 9.609375 -4 Z M 11.890625 -3.375 "/></g></g></g><g fill="#000000" fill-opacity="1"><g transform="translate(217.323911, 134.110282)"><g><path d="M 11.40625 3.53125 L 9.8125 5.75 L 1.71875 1.015625 L 4.5 -3.359375 L 10.5 -13.96875 L 13.71875 -12.09375 L 7.53125 -1.96875 L 6.34375 0.21875 L 11.375 3.15625 Z M 11.40625 3.53125 "/></g></g></g><g fill="#000000" fill-opacity="1"><g transform="translate(229.997967, 141.804853)"><g><path d="M 11.609375 6.625 L 11.5625 6.984375 L 9.546875 8.828125 L 1.546875 1.4375 L 5.203125 -2.234375 L 13.34375 -11.3125 L 21.421875 -3.84375 L 21.375 -3.5 L 19.3125 -1.671875 L 16.375 -4.59375 L 14.046875 -6.6875 L 11.15625 -3.6875 L 13.3125 -1.609375 L 15.4375 0.25 L 15.421875 0.609375 L 13.40625 2.421875 L 11.203125 0.296875 L 9.140625 -1.578125 L 7.859375 -0.21875 L 6.140625 1.734375 L 8.34375 3.84375 Z M 11.609375 6.625 "/></g></g></g><path fill="#ffffff" d="M 254.628906 242.929688 C 252.949219 244.578125 251.214844 246.171875 249.433594 247.710938 C 247.648438 249.25 245.820312 250.730469 243.941406 252.148438 C 242.0625 253.570312 240.144531 254.929688 238.175781 256.230469 C 236.210938 257.527344 234.207031 258.761719 232.164062 259.929688 C 230.121094 261.101562 228.039062 262.203125 225.925781 263.238281 C 223.8125 264.277344 221.664062 265.242188 219.488281 266.144531 C 217.3125 267.042969 215.109375 267.871094 212.878906 268.628906 C 210.648438 269.386719 208.398438 270.070312 206.125 270.683594 C 203.851562 271.300781 201.558594 271.839844 199.25 272.304688 C 196.941406 272.773438 194.621094 273.164062 192.289062 273.484375 C 189.957031 273.800781 187.613281 274.042969 185.265625 274.210938 C 182.914062 274.378906 180.5625 274.472656 178.207031 274.492188 C 175.855469 274.507812 173.5 274.449219 171.148438 274.316406 C 168.796875 274.183594 166.453125 273.976562 164.117188 273.691406 C 161.777344 273.410156 159.453125 273.050781 157.136719 272.617188 C 154.820312 272.183594 152.523438 271.679688 150.242188 271.097656 L 158.742188 237.636719 C 161.878906 238.433594 165.058594 239.027344 168.273438 239.417969 C 171.488281 239.808594 174.714844 239.992188 177.953125 239.96875 C 181.191406 239.941406 184.414062 239.710938 187.625 239.273438 C 190.835938 238.835938 194.003906 238.195312 197.128906 237.351562 C 200.257812 236.507812 203.316406 235.46875 206.308594 234.230469 C 209.304688 232.996094 212.207031 231.574219 215.015625 229.964844 C 217.828125 228.355469 220.523438 226.574219 223.105469 224.621094 C 225.691406 222.664062 228.136719 220.554688 230.449219 218.285156 Z M 254.628906 242.929688 " fill-opacity="1" fill-rule="nonzero"/><g fill="#000000" fill-opacity="1"><g transform="translate(154.985528, 262.318028)"><g><path d="M 12.234375 -15.984375 C 14.097656 -15.710938 15.722656 -15.125 17.109375 -14.21875 L 15.875 -11.078125 L 15.53125 -11.078125 C 14.726562 -11.703125 14 -12.171875 13.34375 -12.484375 C 12.695312 -12.804688 11.984375 -13.023438 11.203125 -13.140625 C 9.617188 -13.367188 8.390625 -13.066406 7.515625 -12.234375 C 6.648438 -11.398438 6.0625 -9.90625 5.75 -7.75 C 5.539062 -6.332031 5.53125 -5.175781 5.71875 -4.28125 C 5.914062 -3.394531 6.316406 -2.710938 6.921875 -2.234375 C 7.523438 -1.765625 8.367188 -1.453125 9.453125 -1.296875 C 9.828125 -1.242188 10.179688 -1.222656 10.515625 -1.234375 C 10.859375 -1.242188 11.28125 -1.28125 11.78125 -1.34375 L 12.03125 -2.796875 L 12.375 -5.53125 L 15.75 -5.296875 L 15.3125 -2.90625 L 14.796875 1.296875 C 12.554688 1.703125 10.539062 1.773438 8.75 1.515625 C 6.082031 1.128906 4.179688 0.109375 3.046875 -1.546875 C 1.910156 -3.203125 1.539062 -5.394531 1.9375 -8.125 C 2.363281 -11.09375 3.46875 -13.25 5.25 -14.59375 C 7.03125 -15.9375 9.359375 -16.398438 12.234375 -15.984375 Z M 12.234375 -15.984375 "/></g></g></g><g fill="#000000" fill-opacity="1"><g transform="translate(177.256804, 264.871709)"><g><path d="M 14.65625 -9.828125 L 14.828125 -7.546875 C 15.023438 -5.484375 14.5625 -3.832031 13.4375 -2.59375 C 12.3125 -1.363281 10.613281 -0.65625 8.34375 -0.46875 C 6.15625 -0.28125 4.441406 -0.679688 3.203125 -1.671875 C 1.972656 -2.671875 1.300781 -4.195312 1.1875 -6.25 L 0.984375 -8.734375 L 0.15625 -17.453125 L 3.8125 -17.765625 L 4.546875 -7.015625 C 4.640625 -5.710938 5 -4.769531 5.625 -4.1875 C 6.25 -3.601562 7.144531 -3.363281 8.3125 -3.46875 C 10.632812 -3.664062 11.6875 -4.988281 11.46875 -7.4375 L 10.328125 -18.328125 L 14.046875 -18.640625 Z M 14.65625 -9.828125 "/></g></g></g><g fill="#000000" fill-opacity="1"><g transform="translate(200.203045, 261.927983)"><g><path d="M 3.9375 -6.796875 L 5.5625 -1.546875 L 2.03125 -0.5625 L 0.84375 -5.59375 L -2.609375 -17.3125 L 0.96875 -18.3125 Z M 3.9375 -6.796875 "/></g></g></g><g fill="#000000" fill-opacity="1"><g transform="translate(213.631401, 258.092942)"><g><path d="M 0.4375 -19.6875 C 2.6875 -20.800781 4.722656 -21.023438 6.546875 -20.359375 C 8.378906 -19.691406 9.875 -18.179688 11.03125 -15.828125 C 12.382812 -13.078125 12.742188 -10.632812 12.109375 -8.5 C 11.484375 -6.363281 9.914062 -4.675781 7.40625 -3.4375 C 6.644531 -3.0625 5.726562 -2.632812 4.65625 -2.15625 C 3.59375 -1.675781 2.671875 -1.269531 1.890625 -0.9375 L -0.21875 -5.65625 L -5.796875 -16.515625 Z M 6.734375 -6.265625 C 9.304688 -7.535156 9.726562 -9.921875 8 -13.421875 C 7.070312 -15.316406 6.082031 -16.539062 5.03125 -17.09375 C 3.976562 -17.65625 2.789062 -17.609375 1.46875 -16.953125 C 0.613281 -16.535156 -0.273438 -16.046875 -1.203125 -15.484375 L 2.59375 -7.421875 L 3.84375 -5.046875 C 5.03125 -5.492188 5.992188 -5.898438 6.734375 -6.265625 Z M 6.734375 -6.265625 "/></g></g></g><g fill="#000000" fill-opacity="1"><g transform="translate(234.615551, 246.752329)"><g><path d="M 8.265625 -10.5 L 8.609375 -10.40625 L 10.140625 -8.140625 L 1.640625 -1.328125 L -1.4375 -5.46875 L -9.234375 -14.875 L -0.65625 -21.75 L -0.296875 -21.65625 L 1.1875 -19.359375 L -2.125 -16.875 L -4.546875 -14.875 L -2 -11.578125 L 0.375 -13.40625 L 2.53125 -15.234375 L 2.875 -15.171875 L 4.375 -12.890625 L 1.9375 -11.046875 L -0.21875 -9.265625 L 0.9375 -7.796875 L 2.625 -5.8125 L 5.015625 -7.703125 Z M 8.265625 -10.5 "/></g></g></g></svg>